<svg width="354" height="216" viewBox="0 0 354 216" fill="none" xmlns="http://www.w3.org/2000/svg">
<g filter="url(#filter0_d_831_44)">
<path d="M1 16.7291L188.633 0V197.236L1 213.965V16.7291Z" fill="url(#paint0_linear_831_44)"/>
</g>
<path d="M353.793 115.305C353.793 165.793 312.864 206.723 262.375 206.723C211.886 206.723 170.957 165.793 170.957 115.305C170.957 64.8159 211.886 23.8867 262.375 23.8867C312.864 23.8867 353.793 64.8159 353.793 115.305Z" fill="url(#paint1_linear_831_44)"/>
<path fill-rule="evenodd" clip-rule="evenodd" d="M262.376 24.0328C211.967 24.0328 171.103 64.8969 171.103 115.305C171.103 165.714 211.967 206.578 262.376 206.578C312.784 206.578 353.648 165.714 353.648 115.305C353.648 64.8969 312.784 24.0328 262.376 24.0328ZM170.75 115.305C170.75 64.7019 211.772 23.6797 262.376 23.6797C312.979 23.6797 354.001 64.7019 354.001 115.305C354.001 165.909 312.979 206.931 262.376 206.931C211.772 206.931 170.75 165.909 170.75 115.305Z" fill="url(#paint2_linear_831_44)"/>
<path d="M291.879 115.308C291.879 131.602 278.67 144.811 262.376 144.811C246.082 144.811 232.873 131.602 232.873 115.308C232.873 99.0137 246.082 85.8047 262.376 85.8047C278.67 85.8047 291.879 99.0137 291.879 115.308Z" fill="#D9D9D9"/>
<path fill-rule="evenodd" clip-rule="evenodd" d="M262.375 85.9475C246.161 85.9475 233.018 99.0911 233.018 115.305C233.018 131.518 246.161 144.662 262.375 144.662C278.588 144.662 291.732 131.518 291.732 115.305C291.732 99.0911 278.588 85.9475 262.375 85.9475ZM232.664 115.305C232.664 98.8957 245.966 85.5938 262.375 85.5938C278.784 85.5938 292.086 98.8957 292.086 115.305C292.086 131.713 278.784 145.015 262.375 145.015C245.966 145.015 232.664 131.713 232.664 115.305Z" fill="url(#paint3_linear_831_44)"/>
<path fill-rule="evenodd" clip-rule="evenodd" d="M262.271 113.171C261.034 113.171 260.032 114.173 260.032 115.41C260.032 116.646 261.034 117.648 262.271 117.648C263.507 117.648 264.51 116.646 264.51 115.41C264.51 114.173 263.507 113.171 262.271 113.171ZM259.674 115.41C259.674 113.975 260.837 112.812 262.271 112.812C263.705 112.812 264.868 113.975 264.868 115.41C264.868 116.844 263.705 118.007 262.271 118.007C260.837 118.007 259.674 116.844 259.674 115.41Z" fill="url(#paint4_linear_831_44)"/>
<path d="M252.076 96.2938C251.713 96.5032 251.261 96.6079 250.722 96.6079C250.123 96.6079 249.651 96.4426 249.305 96.1121C248.96 95.7799 248.788 95.3231 248.788 94.7417C248.788 94.1569 248.977 93.6802 249.354 93.3116C249.732 92.9431 250.233 92.7588 250.86 92.7588C251.254 92.7588 251.602 92.8133 251.903 92.9223L251.903 93.7087C251.616 93.5426 251.265 93.4596 250.849 93.4596C250.502 93.4596 250.218 93.5729 249.998 93.7996C249.78 94.0245 249.671 94.3256 249.671 94.7028C249.671 95.0852 249.768 95.3811 249.964 95.5904C250.161 95.7998 250.427 95.9045 250.761 95.9045C250.961 95.9045 251.121 95.8759 251.238 95.8188L251.238 95.0921H250.493L250.494 94.4225H252.077L252.076 96.2938ZM256.073 96.543H255.16L254.895 95.715H253.572L253.309 96.543H252.401L253.756 92.8211H254.75L256.073 96.543ZM254.703 95.0713L254.304 93.8203C254.274 93.7269 254.254 93.6153 254.242 93.4855H254.221C254.212 93.5945 254.191 93.7027 254.156 93.81L253.751 95.0713H254.703ZM260.779 96.543H259.951L259.951 94.3161C259.951 94.0756 259.962 93.81 259.983 93.5193H259.962C259.919 93.7477 259.88 93.912 259.845 94.0124L258.973 96.543H258.287L257.4 94.0384C257.376 93.9709 257.337 93.7978 257.283 93.5193H257.26C257.283 93.8861 257.294 94.2079 257.294 94.4848L257.293 96.543H256.538L256.539 92.8211H257.766L258.526 95.0272C258.587 95.2037 258.631 95.3811 258.659 95.5593H258.674C258.721 95.3534 258.77 95.1743 258.822 95.022L259.583 92.8211H260.78L260.779 96.543ZM263.857 96.543H261.625L261.626 92.8211H263.772L263.772 93.5037H262.464L262.464 94.3316H263.681L263.681 95.0117H262.464L262.464 95.863H263.857L263.857 96.543ZM264.454 96.543L264.455 92.8211H265.81C266.225 92.8211 266.544 92.8972 266.767 93.0495C266.991 93.2018 267.102 93.4163 267.102 93.6932C267.102 93.8939 267.034 94.0695 266.897 94.22C266.762 94.3706 266.589 94.4753 266.378 94.5341L266.378 94.5445C266.642 94.5773 266.854 94.6751 267.011 94.8378C267.17 95.0004 267.25 95.1985 267.25 95.4321C267.25 95.773 267.128 96.0438 266.884 96.2445C266.639 96.4435 266.306 96.543 265.884 96.543H264.454ZM265.293 93.4388L265.293 94.3213H265.661C265.834 94.3213 265.97 94.2797 266.069 94.1967C266.169 94.1119 266.22 93.996 266.22 93.8489C266.22 93.5755 266.015 93.4388 265.607 93.4388H265.293ZM265.293 94.9442L265.293 95.9253H265.747C265.941 95.9253 266.092 95.8803 266.201 95.7903C266.312 95.7003 266.367 95.5775 266.367 95.4217C266.367 95.2729 266.313 95.1561 266.204 95.0713C266.096 94.9866 265.946 94.9442 265.752 94.9442H265.293ZM270.097 96.543H267.865L267.865 92.8211H270.012L270.012 93.5037H268.703L268.703 94.3316H269.921L269.92 95.0117H268.703L268.703 95.863H270.097L270.097 96.543ZM274.044 96.543H273.131L272.866 95.715H271.542L271.28 96.543H270.372L271.727 92.8211H272.721L274.044 96.543ZM272.674 95.0713L272.275 93.8203C272.245 93.7269 272.225 93.6153 272.213 93.4855H272.192C272.183 93.5945 272.161 93.7027 272.127 93.81L271.722 95.0713H272.674ZM276.749 93.5037H275.688L275.687 96.543H274.846L274.847 93.5037H273.791L273.791 92.8211H276.749L276.749 93.5037ZM258.982 98.797C258.982 98.6828 258.964 98.5833 258.928 98.4985C258.893 98.4137 258.845 98.3436 258.783 98.2883C258.722 98.2312 258.65 98.1888 258.567 98.1611C258.484 98.1334 258.394 98.1196 258.297 98.1196C258.214 98.1196 258.133 98.1308 258.053 98.1533C257.974 98.1758 257.896 98.2069 257.82 98.2467C257.745 98.2865 257.673 98.3341 257.602 98.3895C257.533 98.4449 257.468 98.5063 257.407 98.5738L257.407 98.117C257.527 98.001 257.66 97.9128 257.807 97.8522C257.956 97.7899 258.137 97.7588 258.349 97.7588C258.502 97.7588 258.643 97.7813 258.772 97.8263C258.902 97.8695 259.015 97.9336 259.11 98.0183C259.205 98.1031 259.279 98.2078 259.333 98.3324C259.388 98.457 259.416 98.5997 259.416 98.7606C259.416 98.9077 259.399 99.041 259.364 99.1603C259.331 99.2797 259.28 99.3922 259.211 99.4978C259.143 99.6033 259.058 99.7045 258.954 99.8014C258.85 99.8983 258.728 99.9969 258.588 100.097C258.413 100.222 258.268 100.328 258.154 100.417C258.042 100.505 257.952 100.588 257.884 100.666C257.818 100.742 257.772 100.819 257.744 100.897C257.718 100.973 257.705 101.061 257.705 101.161H259.558L259.558 101.543H257.261L257.261 101.359C257.261 101.2 257.279 101.059 257.313 100.938C257.348 100.817 257.405 100.702 257.485 100.593C257.564 100.484 257.668 100.375 257.796 100.266C257.926 100.157 258.084 100.034 258.271 99.8975C258.406 99.8006 258.519 99.708 258.609 99.6197C258.7 99.5315 258.774 99.4432 258.829 99.355C258.885 99.2668 258.924 99.1776 258.946 99.0877C258.97 98.996 258.982 98.8991 258.982 98.797ZM262.491 99.6665C262.491 99.9779 262.463 100.254 262.406 100.494C262.35 100.735 262.269 100.938 262.161 101.104C262.056 101.269 261.925 101.394 261.769 101.481C261.615 101.565 261.44 101.608 261.243 101.608C261.056 101.608 260.889 101.567 260.742 101.486C260.596 101.403 260.473 101.283 260.373 101.125C260.273 100.968 260.197 100.775 260.145 100.546C260.093 100.316 260.067 100.053 260.067 99.7573C260.067 99.432 260.094 99.1448 260.148 98.8956C260.203 98.6464 260.284 98.4379 260.389 98.2701C260.495 98.1005 260.626 97.9734 260.781 97.8886C260.939 97.8021 261.119 97.7588 261.321 97.7588C262.102 97.7588 262.492 98.3947 262.491 99.6665ZM262.055 99.708C262.055 98.649 261.804 98.1196 261.3 98.1196C260.769 98.1196 260.503 98.6586 260.503 99.7365C260.503 100.742 260.763 101.244 261.284 101.244C261.798 101.244 262.055 100.732 262.055 99.708ZM264.713 98.797C264.713 98.6828 264.695 98.5833 264.659 98.4985C264.624 98.4137 264.576 98.3436 264.513 98.2883C264.453 98.2312 264.381 98.1888 264.298 98.1611C264.215 98.1334 264.125 98.1196 264.028 98.1196C263.945 98.1196 263.864 98.1308 263.784 98.1533C263.705 98.1758 263.627 98.2069 263.551 98.2467C263.476 98.2865 263.403 98.3341 263.332 98.3895C263.263 98.4449 263.198 98.5063 263.138 98.5738L263.138 98.117C263.257 98.001 263.391 97.9128 263.538 97.8522C263.686 97.7899 263.867 97.7588 264.08 97.7588C264.232 97.7588 264.373 97.7813 264.503 97.8263C264.633 97.8695 264.745 97.9336 264.841 98.0183C264.936 98.1031 265.01 98.2078 265.064 98.3324C265.119 98.457 265.147 98.5997 265.147 98.7606C265.147 98.9077 265.129 99.041 265.095 99.1603C265.062 99.2797 265.011 99.3922 264.941 99.4978C264.874 99.6033 264.788 99.7045 264.684 99.8014C264.581 99.8983 264.459 99.9969 264.318 100.097C264.144 100.222 263.999 100.328 263.885 100.417C263.772 100.505 263.682 100.588 263.615 100.666C263.549 100.742 263.502 100.819 263.475 100.897C263.449 100.973 263.436 101.061 263.436 101.161H265.289L265.289 101.543H262.992L262.992 101.359C262.992 101.2 263.009 101.059 263.044 100.938C263.079 100.817 263.136 100.702 263.215 100.593C263.295 100.484 263.399 100.375 263.527 100.266C263.657 100.157 263.815 100.034 264.002 99.8975C264.137 99.8006 264.249 99.708 264.339 99.6197C264.431 99.5315 264.505 99.4432 264.56 99.355C264.615 99.2668 264.654 99.1776 264.677 99.0877C264.701 98.996 264.713 98.8991 264.713 98.797ZM267.781 97.8211L267.781 100.279H268.258L268.258 100.668H267.781L267.78 101.543H267.36L267.36 100.668H265.611L265.611 100.3C265.774 100.116 265.938 99.9208 266.104 99.7132C266.27 99.5038 266.429 99.2918 266.579 99.0773C266.732 98.8627 266.872 98.649 267 98.4362C267.13 98.2217 267.239 98.0166 267.327 97.8211H267.781ZM266.091 100.279H267.36L267.361 98.457C267.231 98.6836 267.108 98.8861 266.992 99.0643C266.876 99.2425 266.765 99.4043 266.66 99.5497C266.556 99.695 266.456 99.8265 266.361 99.9442C266.266 100.062 266.176 100.173 266.091 100.279Z" fill="black"/>
<path d="M258.603 107.089V106.819C258.634 106.846 258.671 106.871 258.714 106.893C258.757 106.915 258.803 106.933 258.85 106.949C258.898 106.963 258.946 106.974 258.995 106.983C259.043 106.991 259.087 106.995 259.128 106.995C259.269 106.995 259.374 106.969 259.443 106.917C259.513 106.865 259.548 106.789 259.548 106.691C259.548 106.638 259.536 106.592 259.512 106.553C259.49 106.514 259.458 106.479 259.417 106.447C259.376 106.414 259.327 106.384 259.271 106.354C259.216 106.325 259.156 106.293 259.091 106.26C259.023 106.226 258.96 106.191 258.901 106.156C258.841 106.12 258.79 106.081 258.747 106.038C258.703 105.996 258.668 105.948 258.643 105.894C258.618 105.839 258.606 105.776 258.606 105.703C258.606 105.614 258.626 105.537 258.665 105.472C258.704 105.405 258.755 105.351 258.819 105.308C258.882 105.265 258.955 105.234 259.035 105.213C259.117 105.192 259.2 105.181 259.285 105.181C259.477 105.181 259.618 105.204 259.706 105.251V105.508C259.59 105.428 259.442 105.388 259.262 105.388C259.212 105.388 259.162 105.394 259.112 105.405C259.062 105.415 259.017 105.432 258.978 105.455C258.939 105.479 258.907 105.509 258.883 105.546C258.858 105.584 258.846 105.629 258.846 105.683C258.846 105.733 258.855 105.776 258.873 105.812C258.892 105.849 258.92 105.882 258.956 105.912C258.993 105.942 259.037 105.971 259.089 105.999C259.141 106.027 259.202 106.058 259.27 106.092C259.34 106.126 259.406 106.162 259.469 106.201C259.531 106.239 259.586 106.281 259.634 106.327C259.681 106.374 259.718 106.425 259.745 106.481C259.773 106.538 259.788 106.602 259.788 106.675C259.788 106.771 259.769 106.853 259.73 106.92C259.693 106.986 259.642 107.04 259.578 107.082C259.514 107.124 259.441 107.154 259.357 107.172C259.273 107.191 259.185 107.201 259.093 107.201C259.062 107.201 259.024 107.198 258.978 107.192C258.933 107.188 258.886 107.181 258.839 107.171C258.792 107.162 258.747 107.15 258.704 107.137C258.663 107.122 258.629 107.106 258.603 107.089ZM260.705 107.154C260.652 107.183 260.582 107.198 260.496 107.198C260.252 107.198 260.13 107.062 260.13 106.789V105.963H259.89V105.773H260.13V105.432L260.353 105.36V105.773H260.705V105.963H260.353V106.75C260.353 106.843 260.369 106.91 260.401 106.95C260.433 106.99 260.485 107.01 260.559 107.01C260.615 107.01 260.664 106.994 260.705 106.964V107.154ZM262.124 106.526H261.139C261.143 106.682 261.185 106.801 261.265 106.886C261.345 106.97 261.455 107.013 261.594 107.013C261.752 107.013 261.896 106.961 262.028 106.857V107.067C261.905 107.156 261.743 107.201 261.541 107.201C261.344 107.201 261.189 107.138 261.077 107.011C260.964 106.884 260.908 106.706 260.908 106.476C260.908 106.259 260.969 106.082 261.092 105.946C261.215 105.809 261.368 105.74 261.551 105.74C261.733 105.74 261.875 105.799 261.975 105.917C262.074 106.035 262.124 106.199 262.124 106.409V106.526ZM261.896 106.337C261.895 106.208 261.863 106.107 261.802 106.036C261.741 105.964 261.656 105.928 261.547 105.928C261.441 105.928 261.352 105.966 261.278 106.041C261.205 106.116 261.159 106.215 261.142 106.337H261.896ZM263.191 105.999C263.152 105.969 263.096 105.954 263.022 105.954C262.927 105.954 262.847 105.999 262.783 106.089C262.719 106.179 262.687 106.301 262.687 106.457V107.168H262.464V105.773H262.687V106.06H262.693C262.724 105.962 262.773 105.886 262.838 105.831C262.904 105.776 262.977 105.748 263.058 105.748C263.116 105.748 263.161 105.754 263.191 105.767V105.999ZM264.555 106.526H263.57C263.574 106.682 263.616 106.801 263.696 106.886C263.775 106.97 263.885 107.013 264.025 107.013C264.182 107.013 264.327 106.961 264.459 106.857V107.067C264.336 107.156 264.174 107.201 263.972 107.201C263.775 107.201 263.62 107.138 263.508 107.011C263.395 106.884 263.339 106.706 263.339 106.476C263.339 106.259 263.4 106.082 263.523 105.946C263.646 105.809 263.799 105.74 263.982 105.74C264.164 105.74 264.306 105.799 264.405 105.917C264.505 106.035 264.555 106.199 264.555 106.409V106.526ZM264.326 106.337C264.326 106.208 264.294 106.107 264.232 106.036C264.172 105.964 264.087 105.928 263.978 105.928C263.872 105.928 263.783 105.966 263.709 106.041C263.636 106.116 263.59 106.215 263.573 106.337H264.326ZM265.478 107.201C265.272 107.201 265.107 107.136 264.983 107.006C264.861 106.875 264.799 106.702 264.799 106.487C264.799 106.252 264.863 106.069 264.991 105.938C265.119 105.806 265.293 105.74 265.511 105.74C265.719 105.74 265.881 105.804 265.997 105.932C266.114 106.06 266.173 106.238 266.173 106.465C266.173 106.687 266.11 106.866 265.983 107C265.858 107.134 265.69 107.201 265.478 107.201ZM265.494 105.928C265.351 105.928 265.237 105.977 265.154 106.075C265.07 106.172 265.028 106.307 265.028 106.478C265.028 106.644 265.07 106.774 265.155 106.87C265.239 106.965 265.352 107.013 265.494 107.013C265.639 107.013 265.749 106.966 265.827 106.872C265.905 106.779 265.944 106.646 265.944 106.473C265.944 106.299 265.905 106.164 265.827 106.07C265.749 105.975 265.639 105.928 265.494 105.928ZM256.124 110.089V109.819C256.154 109.846 256.191 109.871 256.234 109.893C256.277 109.915 256.323 109.933 256.37 109.949C256.418 109.963 256.466 109.974 256.515 109.983C256.563 109.991 256.607 109.995 256.648 109.995C256.789 109.995 256.894 109.969 256.963 109.917C257.033 109.865 257.068 109.789 257.068 109.691C257.068 109.638 257.056 109.592 257.032 109.553C257.01 109.514 256.978 109.479 256.937 109.447C256.896 109.414 256.848 109.384 256.791 109.354C256.736 109.325 256.676 109.293 256.611 109.26C256.543 109.226 256.48 109.191 256.421 109.156C256.362 109.12 256.31 109.081 256.267 109.038C256.223 108.996 256.188 108.948 256.163 108.894C256.139 108.839 256.126 108.776 256.126 108.703C256.126 108.614 256.146 108.537 256.185 108.472C256.224 108.405 256.275 108.351 256.339 108.308C256.402 108.265 256.475 108.234 256.555 108.213C256.637 108.192 256.72 108.181 256.805 108.181C256.997 108.181 257.138 108.204 257.226 108.251V108.508C257.11 108.428 256.962 108.388 256.782 108.388C256.732 108.388 256.682 108.394 256.632 108.405C256.582 108.415 256.537 108.432 256.498 108.455C256.459 108.479 256.427 108.509 256.403 108.546C256.378 108.584 256.366 108.629 256.366 108.683C256.366 108.733 256.375 108.776 256.393 108.812C256.412 108.849 256.44 108.882 256.476 108.912C256.513 108.942 256.557 108.971 256.609 108.999C256.661 109.027 256.722 109.058 256.79 109.092C256.86 109.126 256.926 109.162 256.989 109.201C257.051 109.239 257.106 109.281 257.154 109.327C257.201 109.374 257.238 109.425 257.265 109.481C257.294 109.538 257.308 109.602 257.308 109.675C257.308 109.771 257.289 109.853 257.25 109.92C257.213 109.986 257.162 110.04 257.098 110.082C257.034 110.124 256.961 110.154 256.877 110.172C256.793 110.191 256.705 110.201 256.613 110.201C256.582 110.201 256.544 110.198 256.498 110.192C256.453 110.188 256.406 110.181 256.359 110.171C256.312 110.162 256.267 110.15 256.224 110.137C256.183 110.122 256.149 110.106 256.124 110.089ZM258.485 110.201C258.208 110.201 257.986 110.109 257.819 109.927C257.652 109.744 257.569 109.507 257.569 109.214C257.569 108.9 257.654 108.649 257.824 108.462C257.994 108.275 258.225 108.181 258.518 108.181C258.787 108.181 259.005 108.272 259.169 108.454C259.334 108.635 259.417 108.873 259.417 109.166C259.417 109.485 259.332 109.737 259.164 109.923C258.995 110.108 258.768 110.201 258.485 110.201ZM258.501 108.388C258.296 108.388 258.129 108.462 258.001 108.611C257.873 108.759 257.809 108.953 257.809 109.194C257.809 109.434 257.871 109.628 257.996 109.776C258.121 109.922 258.284 109.995 258.485 109.995C258.699 109.995 258.868 109.925 258.992 109.785C259.115 109.645 259.177 109.449 259.177 109.198C259.177 108.94 259.117 108.74 258.997 108.6C258.877 108.459 258.712 108.388 258.501 108.388ZM259.71 110.089V109.819C259.741 109.846 259.778 109.871 259.82 109.893C259.864 109.915 259.909 109.933 259.957 109.949C260.005 109.963 260.053 109.974 260.101 109.983C260.149 109.991 260.194 109.995 260.235 109.995C260.375 109.995 260.48 109.969 260.549 109.917C260.619 109.865 260.654 109.789 260.654 109.691C260.654 109.638 260.642 109.592 260.619 109.553C260.596 109.514 260.564 109.479 260.523 109.447C260.483 109.414 260.434 109.384 260.378 109.354C260.322 109.325 260.262 109.293 260.198 109.26C260.13 109.226 260.066 109.191 260.007 109.156C259.948 109.12 259.897 109.081 259.853 109.038C259.809 108.996 259.775 108.948 259.749 108.894C259.725 108.839 259.713 108.776 259.713 108.703C259.713 108.614 259.732 108.537 259.771 108.472C259.81 108.405 259.862 108.351 259.925 108.308C259.989 108.265 260.061 108.234 260.142 108.213C260.224 108.192 260.307 108.181 260.391 108.181C260.584 108.181 260.724 108.204 260.812 108.251V108.508C260.697 108.428 260.549 108.388 260.368 108.388C260.318 108.388 260.268 108.394 260.218 108.405C260.168 108.415 260.124 108.432 260.085 108.455C260.046 108.479 260.014 108.509 259.989 108.546C259.965 108.584 259.952 108.629 259.952 108.683C259.952 108.733 259.962 108.776 259.98 108.812C259.999 108.849 260.026 108.882 260.063 108.912C260.099 108.942 260.143 108.971 260.195 108.999C260.248 109.027 260.308 109.058 260.376 109.092C260.446 109.126 260.512 109.162 260.575 109.201C260.638 109.239 260.693 109.281 260.74 109.327C260.787 109.374 260.825 109.425 260.852 109.481C260.88 109.538 260.894 109.602 260.894 109.675C260.894 109.771 260.875 109.853 260.837 109.92C260.8 109.986 260.749 110.04 260.684 110.082C260.621 110.124 260.547 110.154 260.463 110.172C260.38 110.191 260.292 110.201 260.199 110.201C260.168 110.201 260.13 110.198 260.085 110.192C260.039 110.188 259.993 110.181 259.946 110.171C259.898 110.162 259.853 110.15 259.811 110.137C259.769 110.122 259.735 110.106 259.71 110.089ZM262.753 110.168H262.524V109.277H261.513V110.168H261.284V108.214H261.513V109.071H262.524V108.214H262.753V110.168ZM264.666 110.168H264.393L264.066 109.62C264.036 109.569 264.007 109.526 263.979 109.491C263.951 109.454 263.922 109.425 263.892 109.402C263.863 109.379 263.831 109.363 263.796 109.353C263.763 109.342 263.725 109.337 263.682 109.337H263.494V110.168H263.265V108.214H263.848C263.934 108.214 264.012 108.225 264.084 108.247C264.157 108.268 264.219 108.3 264.272 108.343C264.326 108.387 264.367 108.442 264.397 108.507C264.427 108.571 264.442 108.647 264.442 108.734C264.442 108.803 264.432 108.865 264.411 108.923C264.391 108.979 264.362 109.029 264.324 109.074C264.286 109.118 264.241 109.156 264.187 109.188C264.135 109.219 264.075 109.243 264.009 109.26V109.266C264.042 109.28 264.07 109.297 264.093 109.316C264.118 109.335 264.141 109.356 264.163 109.382C264.185 109.407 264.206 109.436 264.227 109.469C264.249 109.501 264.273 109.538 264.299 109.581L264.666 110.168ZM263.494 108.421V109.13H263.805C263.862 109.13 263.914 109.121 263.963 109.104C264.012 109.087 264.054 109.062 264.089 109.03C264.125 108.997 264.152 108.958 264.172 108.912C264.192 108.864 264.202 108.812 264.202 108.754C264.202 108.649 264.168 108.568 264.1 108.51C264.033 108.451 263.935 108.421 263.807 108.421H263.494ZM264.802 109.623C264.802 109.571 264.81 109.519 264.827 109.468C264.843 109.415 264.866 109.366 264.896 109.32C264.927 109.275 264.965 109.234 265.009 109.196C265.055 109.159 265.106 109.13 265.163 109.108C265.079 109.061 265.011 109 264.961 108.927C264.911 108.852 264.886 108.77 264.886 108.68C264.886 108.608 264.9 108.542 264.927 108.481C264.956 108.42 264.994 108.368 265.043 108.323C265.092 108.278 265.15 108.244 265.218 108.219C265.285 108.194 265.357 108.181 265.436 108.181C265.515 108.181 265.588 108.194 265.655 108.219C265.722 108.245 265.78 108.28 265.829 108.324C265.878 108.369 265.917 108.422 265.944 108.482C265.971 108.543 265.985 108.609 265.985 108.68C265.985 108.77 265.96 108.852 265.91 108.927C265.86 109 265.794 109.061 265.711 109.108C265.767 109.13 265.818 109.159 265.862 109.196C265.907 109.234 265.944 109.275 265.974 109.32C266.005 109.366 266.028 109.415 266.045 109.468C266.061 109.519 266.069 109.571 266.069 109.623C266.069 109.708 266.054 109.786 266.023 109.857C265.992 109.928 265.948 109.989 265.892 110.04C265.837 110.09 265.77 110.129 265.692 110.157C265.615 110.185 265.529 110.199 265.436 110.199C265.343 110.199 265.258 110.185 265.181 110.157C265.104 110.129 265.037 110.09 264.98 110.04C264.924 109.989 264.88 109.928 264.848 109.857C264.817 109.786 264.802 109.708 264.802 109.623ZM265.045 109.604C265.045 109.665 265.054 109.72 265.072 109.769C265.091 109.818 265.117 109.86 265.151 109.894C265.185 109.929 265.227 109.955 265.275 109.974C265.324 109.993 265.378 110.002 265.437 110.002C265.494 110.002 265.547 109.992 265.595 109.973C265.643 109.954 265.685 109.927 265.719 109.893C265.754 109.858 265.782 109.816 265.801 109.767C265.821 109.718 265.831 109.664 265.831 109.604C265.831 109.549 265.821 109.498 265.802 109.451C265.784 109.403 265.758 109.361 265.723 109.325C265.689 109.288 265.647 109.26 265.599 109.239C265.551 109.218 265.497 109.207 265.437 109.207C265.381 109.207 265.328 109.217 265.28 109.237C265.233 109.256 265.192 109.284 265.156 109.319C265.122 109.354 265.095 109.395 265.075 109.444C265.055 109.493 265.045 109.546 265.045 109.604ZM265.114 108.698C265.114 108.744 265.122 108.787 265.139 108.827C265.156 108.866 265.179 108.901 265.208 108.931C265.238 108.96 265.273 108.983 265.312 109C265.351 109.017 265.392 109.025 265.437 109.025C265.481 109.025 265.523 109.016 265.562 108.999C265.602 108.982 265.637 108.958 265.666 108.929C265.695 108.899 265.718 108.865 265.735 108.826C265.753 108.786 265.761 108.743 265.761 108.698C265.761 108.65 265.753 108.607 265.735 108.567C265.719 108.527 265.696 108.492 265.667 108.463C265.638 108.434 265.604 108.412 265.564 108.395C265.525 108.378 265.482 108.369 265.437 108.369C265.389 108.369 265.345 108.378 265.305 108.395C265.266 108.412 265.232 108.436 265.203 108.466C265.174 108.495 265.153 108.53 265.137 108.57C265.122 108.61 265.114 108.652 265.114 108.698ZM267.124 109.478H266.38V109.303H267.124V109.478ZM267.466 110.089V109.819C267.497 109.846 267.534 109.871 267.576 109.893C267.62 109.915 267.665 109.933 267.713 109.949C267.761 109.963 267.809 109.974 267.857 109.983C267.905 109.991 267.95 109.995 267.991 109.995C268.131 109.995 268.236 109.969 268.305 109.917C268.375 109.865 268.41 109.789 268.41 109.691C268.41 109.638 268.398 109.592 268.375 109.553C268.352 109.514 268.32 109.479 268.279 109.447C268.239 109.414 268.19 109.384 268.134 109.354C268.078 109.325 268.018 109.293 267.954 109.26C267.886 109.226 267.822 109.191 267.763 109.156C267.704 109.12 267.653 109.081 267.609 109.038C267.565 108.996 267.531 108.948 267.505 108.894C267.481 108.839 267.469 108.776 267.469 108.703C267.469 108.614 267.488 108.537 267.527 108.472C267.566 108.405 267.618 108.351 267.681 108.308C267.745 108.265 267.817 108.234 267.898 108.213C267.98 108.192 268.063 108.181 268.147 108.181C268.34 108.181 268.48 108.204 268.568 108.251V108.508C268.453 108.428 268.305 108.388 268.124 108.388C268.074 108.388 268.024 108.394 267.974 108.405C267.924 108.415 267.88 108.432 267.841 108.455C267.802 108.479 267.77 108.509 267.745 108.546C267.721 108.584 267.708 108.629 267.708 108.683C267.708 108.733 267.718 108.776 267.736 108.812C267.755 108.849 267.782 108.882 267.819 108.912C267.855 108.942 267.899 108.971 267.951 108.999C268.004 109.027 268.064 109.058 268.132 109.092C268.202 109.126 268.268 109.162 268.331 109.201C268.394 109.239 268.449 109.281 268.496 109.327C268.543 109.374 268.581 109.425 268.608 109.481C268.636 109.538 268.65 109.602 268.65 109.675C268.65 109.771 268.631 109.853 268.593 109.92C268.556 109.986 268.505 110.04 268.44 110.082C268.377 110.124 268.303 110.154 268.219 110.172C268.136 110.191 268.048 110.201 267.955 110.201C267.924 110.201 267.886 110.198 267.841 110.192C267.795 110.188 267.749 110.181 267.702 110.171C267.654 110.162 267.609 110.15 267.567 110.137C267.525 110.122 267.491 110.106 267.466 110.089Z" fill="black"/>
<path d="M258.873 121.697V121.365C258.933 121.415 258.999 121.453 259.069 121.479C259.14 121.504 259.211 121.516 259.283 121.516C259.325 121.516 259.362 121.512 259.393 121.505C259.425 121.497 259.451 121.487 259.472 121.474C259.494 121.46 259.51 121.444 259.52 121.426C259.53 121.407 259.536 121.387 259.536 121.366C259.536 121.337 259.527 121.311 259.511 121.288C259.494 121.265 259.471 121.244 259.442 121.224C259.414 121.205 259.38 121.186 259.34 121.168C259.301 121.15 259.258 121.132 259.213 121.113C259.096 121.065 259.01 121.006 258.952 120.936C258.895 120.866 258.867 120.781 258.867 120.683C258.867 120.605 258.883 120.539 258.914 120.483C258.945 120.427 258.987 120.381 259.04 120.345C259.094 120.309 259.157 120.283 259.227 120.266C259.298 120.249 259.373 120.24 259.451 120.24C259.529 120.24 259.597 120.245 259.657 120.255C259.717 120.264 259.773 120.278 259.823 120.297V120.608C259.798 120.59 259.771 120.575 259.741 120.562C259.712 120.549 259.682 120.538 259.651 120.53C259.62 120.521 259.588 120.514 259.557 120.51C259.527 120.506 259.498 120.504 259.47 120.504C259.432 120.504 259.397 120.508 259.366 120.515C259.335 120.522 259.309 120.532 259.287 120.545C259.266 120.559 259.249 120.575 259.238 120.593C259.226 120.611 259.22 120.632 259.22 120.654C259.22 120.679 259.227 120.702 259.24 120.722C259.253 120.741 259.272 120.76 259.296 120.778C259.32 120.795 259.349 120.813 259.384 120.83C259.419 120.847 259.458 120.864 259.501 120.882C259.561 120.907 259.614 120.933 259.661 120.962C259.709 120.989 259.75 121.021 259.784 121.056C259.818 121.092 259.844 121.132 259.862 121.178C259.88 121.223 259.889 121.275 259.889 121.336C259.889 121.419 259.873 121.488 259.841 121.545C259.81 121.601 259.767 121.647 259.713 121.682C259.659 121.717 259.596 121.742 259.524 121.757C259.453 121.772 259.377 121.78 259.298 121.78C259.216 121.78 259.138 121.773 259.064 121.759C258.991 121.745 258.927 121.724 258.873 121.697ZM260.469 121.754H260.134V120.265H260.469V121.754ZM260.808 121.754V120.265H261.336C261.865 120.265 262.129 120.507 262.129 120.991C262.129 121.223 262.057 121.408 261.912 121.546C261.768 121.685 261.576 121.754 261.336 121.754H260.808ZM261.144 120.538V121.482H261.31C261.455 121.482 261.569 121.438 261.651 121.351C261.734 121.264 261.776 121.145 261.776 120.995C261.776 120.853 261.735 120.742 261.652 120.661C261.571 120.579 261.456 120.538 261.308 120.538H261.144ZM263.269 121.754H262.376V120.265H263.235V120.538H262.711V120.869H263.198V121.141H262.711V121.482H263.269V121.754ZM265.404 121.754H265.039L264.933 121.423H264.404L264.299 121.754H263.935L264.477 120.265H264.875L265.404 121.754ZM264.856 121.165L264.696 120.665C264.685 120.627 264.676 120.583 264.671 120.531H264.663C264.66 120.575 264.651 120.618 264.637 120.661L264.475 121.165H264.856ZM256.78 124.754H256.606V124.075H255.835V124.754H255.661V123.265H255.835V123.918H256.606V123.265H256.78V124.754ZM257.592 124.779C257.435 124.779 257.309 124.729 257.215 124.63C257.122 124.531 257.075 124.399 257.075 124.235C257.075 124.056 257.124 123.917 257.221 123.816C257.319 123.716 257.451 123.666 257.617 123.666C257.775 123.666 257.899 123.715 257.988 123.812C258.077 123.91 258.122 124.045 258.122 124.218C258.122 124.388 258.073 124.524 257.977 124.626C257.882 124.728 257.753 124.779 257.592 124.779ZM257.605 123.809C257.495 123.809 257.409 123.847 257.345 123.921C257.281 123.995 257.249 124.098 257.249 124.229C257.249 124.355 257.282 124.454 257.346 124.527C257.41 124.599 257.497 124.636 257.605 124.636C257.715 124.636 257.799 124.6 257.858 124.529C257.917 124.457 257.947 124.356 257.947 124.224C257.947 124.092 257.917 123.989 257.858 123.917C257.799 123.845 257.715 123.809 257.605 123.809ZM258.887 124.744C258.847 124.766 258.794 124.777 258.728 124.777C258.542 124.777 258.449 124.673 258.449 124.465V123.836H258.266V123.691H258.449V123.431L258.619 123.376V123.691H258.887V123.836H258.619V124.435C258.619 124.506 258.631 124.557 258.655 124.588C258.679 124.618 258.72 124.633 258.776 124.633C258.819 124.633 258.856 124.622 258.887 124.598V124.744ZM259.284 124.754H259.114V123.18H259.284V124.754ZM259.716 123.421C259.686 123.421 259.66 123.41 259.638 123.39C259.617 123.369 259.606 123.343 259.606 123.311C259.606 123.279 259.617 123.253 259.638 123.232C259.66 123.21 259.686 123.2 259.716 123.2C259.747 123.2 259.774 123.21 259.795 123.232C259.817 123.253 259.828 123.279 259.828 123.311C259.828 123.341 259.817 123.367 259.795 123.389C259.774 123.41 259.747 123.421 259.716 123.421ZM259.799 124.754H259.629V123.691H259.799V124.754ZM261.026 124.754H260.856V124.148C260.856 123.922 260.774 123.809 260.609 123.809C260.524 123.809 260.453 123.841 260.397 123.906C260.342 123.969 260.314 124.05 260.314 124.148V124.754H260.144V123.691H260.314V123.867H260.318C260.399 123.733 260.515 123.666 260.667 123.666C260.783 123.666 260.872 123.704 260.934 123.779C260.996 123.854 261.026 123.962 261.026 124.104V124.754ZM262.203 124.265H261.452C261.455 124.383 261.487 124.475 261.548 124.539C261.608 124.603 261.692 124.636 261.799 124.636C261.919 124.636 262.029 124.596 262.129 124.517V124.677C262.035 124.745 261.912 124.779 261.758 124.779C261.608 124.779 261.49 124.731 261.404 124.635C261.318 124.538 261.276 124.402 261.276 124.227C261.276 124.061 261.322 123.926 261.416 123.823C261.51 123.718 261.626 123.666 261.766 123.666C261.905 123.666 262.012 123.711 262.088 123.801C262.165 123.891 262.203 124.016 262.203 124.176V124.265ZM262.028 124.121C262.028 124.022 262.004 123.946 261.957 123.891C261.91 123.837 261.846 123.809 261.762 123.809C261.682 123.809 261.614 123.838 261.558 123.895C261.502 123.953 261.467 124.028 261.454 124.121H262.028ZM264.585 124.754H264.412V123.755C264.412 123.676 264.417 123.58 264.426 123.466H264.422C264.406 123.533 264.391 123.581 264.378 123.61L263.869 124.754H263.784L263.276 123.618C263.262 123.585 263.247 123.534 263.231 123.466H263.227C263.233 123.525 263.236 123.622 263.236 123.757V124.754H263.067V123.265H263.298L263.755 124.303C263.79 124.383 263.813 124.442 263.823 124.482H263.829C263.859 124.4 263.883 124.339 263.901 124.299L264.367 123.265H264.585V124.754ZM265.042 123.421C265.012 123.421 264.986 123.41 264.964 123.39C264.943 123.369 264.932 123.343 264.932 123.311C264.932 123.279 264.943 123.253 264.964 123.232C264.986 123.21 265.012 123.2 265.042 123.2C265.073 123.2 265.1 123.21 265.121 123.232C265.143 123.253 265.154 123.279 265.154 123.311C265.154 123.341 265.143 123.367 265.121 123.389C265.1 123.41 265.073 123.421 265.042 123.421ZM265.125 124.754H264.955V123.691H265.125V124.754ZM266.231 124.754H266.061V124.588H266.056C265.982 124.715 265.873 124.779 265.729 124.779C265.623 124.779 265.54 124.751 265.48 124.695C265.421 124.639 265.391 124.564 265.391 124.472C265.391 124.273 265.508 124.157 265.742 124.125L266.061 124.08C266.061 123.899 265.987 123.809 265.841 123.809C265.713 123.809 265.598 123.853 265.495 123.94V123.766C265.599 123.699 265.72 123.666 265.856 123.666C266.106 123.666 266.231 123.798 266.231 124.062V124.754ZM266.061 124.216L265.804 124.251C265.725 124.263 265.666 124.282 265.626 124.311C265.585 124.338 265.565 124.388 265.565 124.459C265.565 124.511 265.584 124.554 265.62 124.587C265.658 124.619 265.707 124.636 265.769 124.636C265.853 124.636 265.923 124.606 265.977 124.547C266.033 124.488 266.061 124.413 266.061 124.322V124.216ZM268.061 124.754H267.891V124.143C267.891 124.026 267.872 123.941 267.836 123.888C267.8 123.835 267.739 123.809 267.653 123.809C267.58 123.809 267.518 123.842 267.467 123.909C267.417 123.975 267.391 124.055 267.391 124.148V124.754H267.221V124.123C267.221 123.914 267.141 123.809 266.979 123.809C266.905 123.809 266.843 123.841 266.795 123.904C266.746 123.966 266.722 124.047 266.722 124.148V124.754H266.552V123.691H266.722V123.859H266.726C266.801 123.73 266.911 123.666 267.056 123.666C267.129 123.666 267.192 123.686 267.246 123.727C267.3 123.767 267.337 123.82 267.357 123.886C267.436 123.739 267.554 123.666 267.71 123.666C267.944 123.666 268.061 123.81 268.061 124.099V124.754ZM268.47 123.421C268.44 123.421 268.414 123.41 268.392 123.39C268.371 123.369 268.36 123.343 268.36 123.311C268.36 123.279 268.371 123.253 268.392 123.232C268.414 123.21 268.44 123.2 268.47 123.2C268.501 123.2 268.528 123.21 268.549 123.232C268.571 123.253 268.582 123.279 268.582 123.311C268.582 123.341 268.571 123.367 268.549 123.389C268.528 123.41 268.501 123.421 268.47 123.421ZM268.553 124.754H268.383V123.691H268.553V124.754ZM257.678 127.754H257.435L256.86 127.073C256.839 127.047 256.826 127.03 256.821 127.021H256.817V127.754H256.642V126.265H256.817V126.965H256.821C256.83 126.95 256.844 126.933 256.86 126.914L257.417 126.265H257.634L256.995 126.979L257.678 127.754ZM258.614 127.754H258.443V127.588H258.439C258.365 127.715 258.256 127.779 258.112 127.779C258.006 127.779 257.923 127.751 257.863 127.695C257.804 127.639 257.774 127.564 257.774 127.472C257.774 127.273 257.891 127.157 258.125 127.125L258.443 127.08C258.443 126.899 258.37 126.809 258.224 126.809C258.096 126.809 257.981 126.853 257.878 126.94V126.766C257.982 126.699 258.103 126.666 258.239 126.666C258.489 126.666 258.614 126.798 258.614 127.062V127.754ZM258.443 127.216L258.187 127.251C258.108 127.263 258.049 127.282 258.008 127.311C257.968 127.338 257.948 127.388 257.948 127.459C257.948 127.511 257.967 127.554 258.003 127.587C258.041 127.619 258.09 127.636 258.152 127.636C258.236 127.636 258.306 127.606 258.36 127.547C258.416 127.488 258.443 127.413 258.443 127.322V127.216ZM259.428 127.744C259.387 127.766 259.334 127.777 259.269 127.777C259.083 127.777 258.989 127.673 258.989 127.465V126.836H258.807V126.691H258.989V126.431L259.16 126.376V126.691H259.428V126.836H259.16V127.435C259.16 127.506 259.172 127.557 259.196 127.588C259.22 127.618 259.26 127.633 259.316 127.633C259.359 127.633 259.396 127.622 259.428 127.598V127.744ZM260.416 127.754H260.246V127.588H260.242C260.167 127.715 260.058 127.779 259.914 127.779C259.809 127.779 259.726 127.751 259.665 127.695C259.606 127.639 259.576 127.564 259.576 127.472C259.576 127.273 259.693 127.157 259.927 127.125L260.246 127.08C260.246 126.899 260.173 126.809 260.027 126.809C259.899 126.809 259.783 126.853 259.68 126.94V126.766C259.784 126.699 259.905 126.666 260.041 126.666C260.291 126.666 260.416 126.798 260.416 127.062V127.754ZM260.246 127.216L259.989 127.251C259.91 127.263 259.851 127.282 259.811 127.311C259.771 127.338 259.75 127.388 259.75 127.459C259.75 127.511 259.769 127.554 259.805 127.587C259.843 127.619 259.892 127.636 259.954 127.636C260.038 127.636 260.108 127.606 260.163 127.547C260.218 127.488 260.246 127.413 260.246 127.322V127.216ZM261.619 127.754H261.449V127.148C261.449 126.922 261.367 126.809 261.202 126.809C261.117 126.809 261.046 126.841 260.99 126.906C260.935 126.969 260.907 127.05 260.907 127.148V127.754H260.737V126.691H260.907V126.867H260.911C260.991 126.733 261.108 126.666 261.26 126.666C261.376 126.666 261.465 126.704 261.527 126.779C261.588 126.854 261.619 126.962 261.619 127.104V127.754ZM262.702 127.754H262.532V127.588H262.528C262.454 127.715 262.345 127.779 262.201 127.779C262.095 127.779 262.012 127.751 261.951 127.695C261.892 127.639 261.862 127.564 261.862 127.472C261.862 127.273 261.979 127.157 262.213 127.125L262.532 127.08C262.532 126.899 262.459 126.809 262.313 126.809C262.185 126.809 262.069 126.853 261.966 126.94V126.766C262.07 126.699 262.191 126.666 262.327 126.666C262.577 126.666 262.702 126.798 262.702 127.062V127.754ZM262.532 127.216L262.275 127.251C262.196 127.263 262.137 127.282 262.097 127.311C262.057 127.338 262.037 127.388 262.037 127.459C262.037 127.511 262.055 127.554 262.092 127.587C262.129 127.619 262.178 127.636 262.24 127.636C262.324 127.636 262.394 127.606 262.449 127.547C262.504 127.488 262.532 127.413 262.532 127.322V127.216ZM264.601 126.307L263.729 127.596H264.58V127.754H263.468V127.705L264.333 126.423H263.538V126.265H264.601V126.307ZM265.673 127.265H264.923C264.925 127.383 264.957 127.475 265.018 127.539C265.079 127.603 265.163 127.636 265.269 127.636C265.389 127.636 265.499 127.596 265.6 127.517V127.677C265.506 127.745 265.383 127.779 265.229 127.779C265.079 127.779 264.961 127.731 264.875 127.635C264.789 127.538 264.746 127.402 264.746 127.227C264.746 127.061 264.793 126.926 264.886 126.823C264.98 126.718 265.097 126.666 265.236 126.666C265.375 126.666 265.483 126.711 265.559 126.801C265.635 126.891 265.673 127.016 265.673 127.176V127.265ZM265.499 127.121C265.498 127.022 265.474 126.946 265.427 126.891C265.381 126.837 265.316 126.809 265.233 126.809C265.153 126.809 265.085 126.838 265.029 126.895C264.973 126.953 264.938 127.028 264.925 127.121H265.499ZM266.486 126.863C266.456 126.84 266.413 126.829 266.357 126.829C266.285 126.829 266.224 126.863 266.175 126.932C266.126 127 266.102 127.094 266.102 127.212V127.754H265.932V126.691H266.102V126.91H266.106C266.13 126.835 266.167 126.777 266.217 126.735C266.267 126.693 266.323 126.672 266.384 126.672C266.429 126.672 266.463 126.677 266.486 126.687V126.863ZM267.115 127.779C266.958 127.779 266.833 127.729 266.738 127.63C266.645 127.531 266.598 127.399 266.598 127.235C266.598 127.056 266.647 126.917 266.745 126.816C266.842 126.716 266.974 126.666 267.14 126.666C267.299 126.666 267.422 126.715 267.511 126.812C267.6 126.91 267.645 127.045 267.645 127.218C267.645 127.388 267.597 127.524 267.5 127.626C267.405 127.728 267.277 127.779 267.115 127.779ZM267.128 126.809C267.018 126.809 266.932 126.847 266.868 126.921C266.805 126.995 266.773 127.098 266.773 127.229C266.773 127.355 266.805 127.454 266.869 127.527C266.934 127.599 267.02 127.636 267.128 127.636C267.238 127.636 267.322 127.6 267.381 127.529C267.441 127.457 267.47 127.356 267.47 127.224C267.47 127.092 267.441 126.989 267.381 126.917C267.322 126.845 267.238 126.809 267.128 126.809ZM257.333 130.754V129.265H257.756C257.885 129.265 257.987 129.297 258.062 129.36C258.138 129.423 258.176 129.505 258.176 129.606C258.176 129.69 258.153 129.763 258.107 129.826C258.061 129.888 257.998 129.932 257.918 129.959V129.963C258.018 129.975 258.099 130.013 258.159 130.077C258.219 130.141 258.249 130.224 258.249 130.326C258.249 130.454 258.204 130.557 258.112 130.636C258.021 130.714 257.906 130.754 257.766 130.754H257.333ZM257.507 129.423V129.904H257.686C257.781 129.904 257.856 129.881 257.911 129.835C257.965 129.789 257.993 129.724 257.993 129.64C257.993 129.495 257.898 129.423 257.707 129.423H257.507ZM257.507 130.06V130.596H257.744C257.846 130.596 257.925 130.572 257.981 130.523C258.038 130.475 258.067 130.409 258.067 130.324C258.067 130.148 257.947 130.06 257.707 130.06H257.507ZM258.699 130.754H258.529V129.18H258.699V130.754ZM259.488 130.779C259.331 130.779 259.205 130.729 259.111 130.63C259.017 130.531 258.971 130.399 258.971 130.235C258.971 130.056 259.02 129.917 259.117 129.816C259.215 129.716 259.347 129.666 259.513 129.666C259.671 129.666 259.795 129.715 259.883 129.812C259.973 129.91 260.017 130.045 260.017 130.218C260.017 130.388 259.969 130.524 259.873 130.626C259.777 130.728 259.649 130.779 259.488 130.779ZM259.5 129.809C259.391 129.809 259.304 129.847 259.241 129.921C259.177 129.995 259.145 130.098 259.145 130.229C259.145 130.355 259.177 130.454 259.242 130.527C259.306 130.599 259.392 130.636 259.5 130.636C259.61 130.636 259.695 130.6 259.754 130.529C259.813 130.457 259.843 130.356 259.843 130.224C259.843 130.092 259.813 129.989 259.754 129.917C259.695 129.845 259.61 129.809 259.5 129.809ZM260.734 130.779C260.576 130.779 260.451 130.729 260.357 130.63C260.263 130.531 260.217 130.399 260.217 130.235C260.217 130.056 260.265 129.917 260.363 129.816C260.461 129.716 260.592 129.666 260.759 129.666C260.917 129.666 261.041 129.715 261.129 129.812C261.218 129.91 261.263 130.045 261.263 130.218C261.263 130.388 261.215 130.524 261.119 130.626C261.023 130.728 260.895 130.779 260.734 130.779ZM260.746 129.809C260.637 129.809 260.55 129.847 260.487 129.921C260.423 129.995 260.391 130.098 260.391 130.229C260.391 130.355 260.423 130.454 260.488 130.527C260.552 130.599 260.638 130.636 260.746 130.636C260.856 130.636 260.941 130.6 260.999 130.529C261.059 130.457 261.089 130.356 261.089 130.224C261.089 130.092 261.059 129.989 260.999 129.917C260.941 129.845 260.856 129.809 260.746 129.809ZM262.442 130.754H262.272V130.573H262.268C262.189 130.71 262.067 130.779 261.903 130.779C261.769 130.779 261.662 130.731 261.582 130.637C261.502 130.541 261.462 130.411 261.462 130.247C261.462 130.071 261.507 129.931 261.595 129.825C261.684 129.719 261.802 129.666 261.949 129.666C262.095 129.666 262.202 129.723 262.268 129.838H262.272V129.18H262.442V130.754ZM262.272 130.273V130.116C262.272 130.031 262.244 129.958 262.187 129.898C262.13 129.839 262.058 129.809 261.971 129.809C261.867 129.809 261.786 129.847 261.726 129.923C261.667 129.999 261.637 130.105 261.637 130.239C261.637 130.361 261.665 130.458 261.722 130.53C261.779 130.6 261.856 130.636 261.952 130.636C262.047 130.636 262.124 130.601 262.183 130.533C262.242 130.464 262.272 130.378 262.272 130.273ZM262.962 130.6H262.957V130.754H262.787V129.18H262.957V129.878H262.962C263.045 129.736 263.168 129.666 263.329 129.666C263.465 129.666 263.572 129.714 263.649 129.809C263.726 129.904 263.765 130.031 263.765 130.191C263.765 130.369 263.722 130.512 263.635 130.619C263.549 130.726 263.43 130.779 263.28 130.779C263.14 130.779 263.034 130.719 262.962 130.6ZM262.957 130.171V130.32C262.957 130.408 262.986 130.483 263.043 130.544C263.1 130.605 263.173 130.636 263.261 130.636C263.364 130.636 263.444 130.596 263.502 130.517C263.561 130.438 263.591 130.329 263.591 130.188C263.591 130.07 263.563 129.977 263.509 129.91C263.454 129.843 263.38 129.809 263.286 129.809C263.188 129.809 263.108 129.844 263.048 129.913C262.988 129.981 262.957 130.068 262.957 130.171ZM264.481 130.779C264.324 130.779 264.199 130.729 264.105 130.63C264.011 130.531 263.964 130.399 263.964 130.235C263.964 130.056 264.013 129.917 264.111 129.816C264.208 129.716 264.34 129.666 264.506 129.666C264.665 129.666 264.788 129.715 264.877 129.812C264.966 129.91 265.011 130.045 265.011 130.218C265.011 130.388 264.963 130.524 264.867 130.626C264.771 130.728 264.643 130.779 264.481 130.779ZM264.494 129.809C264.385 129.809 264.298 129.847 264.234 129.921C264.171 129.995 264.139 130.098 264.139 130.229C264.139 130.355 264.171 130.454 264.235 130.527C264.3 130.599 264.386 130.636 264.494 130.636C264.604 130.636 264.688 130.6 264.747 130.529C264.807 130.457 264.837 130.356 264.837 130.224C264.837 130.092 264.807 129.989 264.747 129.917C264.688 129.845 264.604 129.809 264.494 129.809ZM265.837 129.863C265.808 129.84 265.765 129.829 265.709 129.829C265.636 129.829 265.575 129.863 265.526 129.932C265.477 130 265.453 130.094 265.453 130.212V130.754H265.283V129.691H265.453V129.91H265.457C265.482 129.835 265.519 129.777 265.568 129.735C265.618 129.693 265.674 129.672 265.736 129.672C265.78 129.672 265.814 129.677 265.837 129.687V129.863ZM266.905 130.754H266.734V130.148C266.734 129.922 266.652 129.809 266.487 129.809C266.402 129.809 266.331 129.841 266.275 129.906C266.22 129.969 266.192 130.05 266.192 130.148V130.754H266.022V129.691H266.192V129.867H266.197C266.277 129.733 266.393 129.666 266.545 129.666C266.662 129.666 266.751 129.704 266.812 129.779C266.874 129.854 266.905 129.962 266.905 130.104V130.754ZM258.939 133.697V133.365C258.999 133.415 259.064 133.453 259.135 133.479C259.205 133.504 259.277 133.516 259.349 133.516C259.391 133.516 259.428 133.512 259.459 133.505C259.491 133.497 259.517 133.487 259.538 133.474C259.559 133.46 259.575 133.444 259.585 133.426C259.596 133.407 259.601 133.387 259.601 133.366C259.601 133.337 259.593 133.311 259.576 133.288C259.559 133.265 259.537 133.244 259.508 133.224C259.479 133.205 259.445 133.186 259.406 133.168C259.366 133.15 259.324 133.132 259.278 133.113C259.162 133.065 259.075 133.006 259.017 132.936C258.961 132.866 258.932 132.781 258.932 132.683C258.932 132.605 258.948 132.539 258.979 132.483C259.01 132.427 259.052 132.381 259.106 132.345C259.16 132.309 259.222 132.283 259.293 132.266C259.363 132.249 259.438 132.24 259.517 132.24C259.594 132.24 259.663 132.245 259.722 132.255C259.783 132.264 259.838 132.278 259.889 132.297V132.608C259.864 132.59 259.836 132.575 259.807 132.562C259.777 132.549 259.747 132.538 259.716 132.53C259.685 132.521 259.654 132.514 259.623 132.51C259.592 132.506 259.563 132.504 259.536 132.504C259.497 132.504 259.463 132.508 259.432 132.515C259.401 132.522 259.374 132.532 259.353 132.545C259.331 132.559 259.315 132.575 259.303 132.593C259.291 132.611 259.285 132.632 259.285 132.654C259.285 132.679 259.292 132.702 259.305 132.722C259.318 132.741 259.337 132.76 259.361 132.778C259.385 132.795 259.415 132.813 259.449 132.83C259.484 132.847 259.523 132.864 259.567 132.882C259.626 132.907 259.68 132.933 259.727 132.962C259.774 132.989 259.815 133.021 259.849 133.056C259.883 133.092 259.909 133.132 259.927 133.178C259.945 133.223 259.954 133.275 259.954 133.336C259.954 133.419 259.938 133.488 259.906 133.545C259.875 133.601 259.832 133.647 259.778 133.682C259.724 133.717 259.662 133.742 259.59 133.757C259.518 133.772 259.443 133.78 259.363 133.78C259.282 133.78 259.204 133.773 259.13 133.759C259.056 133.745 258.993 133.724 258.939 133.697ZM260.534 133.754H260.199V132.265H260.534V133.754ZM260.874 133.754V132.265H261.401C261.93 132.265 262.194 132.507 262.194 132.991C262.194 133.223 262.122 133.408 261.977 133.546C261.833 133.685 261.641 133.754 261.401 133.754H260.874ZM261.209 132.538V133.482H261.375C261.521 133.482 261.634 133.438 261.717 133.351C261.8 133.264 261.841 133.145 261.841 132.995C261.841 132.853 261.8 132.742 261.718 132.661C261.636 132.579 261.521 132.538 261.373 132.538H261.209ZM263.334 133.754H262.441V132.265H263.3V132.538H262.777V132.869H263.264V133.141H262.777V133.482H263.334V133.754ZM264.161 133.754V132.265H264.703C264.869 132.265 264.996 132.296 265.086 132.357C265.175 132.417 265.22 132.503 265.22 132.614C265.22 132.694 265.192 132.765 265.138 132.825C265.084 132.885 265.014 132.927 264.93 132.95V132.955C265.036 132.968 265.12 133.007 265.183 133.072C265.247 133.137 265.279 133.216 265.279 133.31C265.279 133.446 265.23 133.554 265.132 133.635C265.035 133.714 264.902 133.754 264.733 133.754H264.161ZM264.496 132.512V132.865H264.643C264.713 132.865 264.767 132.849 264.806 132.815C264.847 132.781 264.867 132.735 264.867 132.676C264.867 132.567 264.785 132.512 264.622 132.512H264.496ZM264.496 133.114V133.507H264.678C264.755 133.507 264.816 133.489 264.859 133.453C264.904 133.417 264.926 133.368 264.926 133.305C264.926 133.246 264.904 133.199 264.86 133.165C264.817 133.131 264.757 133.114 264.68 133.114H264.496ZM257.316 136.754V135.265H257.727C258.252 135.265 258.514 135.507 258.514 135.991C258.514 136.221 258.441 136.405 258.295 136.545C258.15 136.684 257.955 136.754 257.71 136.754H257.316ZM257.49 135.423V136.596H257.713C257.908 136.596 258.06 136.544 258.168 136.439C258.277 136.335 258.331 136.187 258.331 135.995C258.331 135.614 258.128 135.423 257.723 135.423H257.49ZM259.545 136.754H259.375V136.588H259.37C259.296 136.715 259.187 136.779 259.043 136.779C258.938 136.779 258.855 136.751 258.794 136.695C258.735 136.639 258.705 136.564 258.705 136.472C258.705 136.273 258.822 136.157 259.056 136.125L259.375 136.08C259.375 135.899 259.302 135.809 259.156 135.809C259.028 135.809 258.912 135.853 258.809 135.94V135.766C258.913 135.699 259.034 135.666 259.17 135.666C259.42 135.666 259.545 135.798 259.545 136.062V136.754ZM259.375 136.216L259.118 136.251C259.039 136.263 258.98 136.282 258.94 136.311C258.899 136.338 258.879 136.388 258.879 136.459C258.879 136.511 258.898 136.554 258.934 136.587C258.972 136.619 259.021 136.636 259.083 136.636C259.167 136.636 259.237 136.606 259.292 136.547C259.347 136.488 259.375 136.413 259.375 136.322V136.216ZM260.42 135.863C260.39 135.84 260.347 135.829 260.291 135.829C260.219 135.829 260.158 135.863 260.109 135.932C260.06 136 260.036 136.094 260.036 136.212V136.754H259.866V135.691H260.036V135.91H260.04C260.064 135.835 260.101 135.777 260.151 135.735C260.201 135.693 260.257 135.672 260.318 135.672C260.363 135.672 260.397 135.677 260.42 135.687V135.863ZM261.487 136.754H261.249L260.779 136.243H260.775V136.754H260.605V135.18H260.775V136.178H260.779L261.226 135.691H261.449L260.956 136.204L261.487 136.754ZM262.198 136.694V136.488C262.222 136.509 262.25 136.528 262.283 136.544C262.316 136.561 262.35 136.575 262.386 136.587C262.423 136.598 262.46 136.606 262.496 136.613C262.533 136.619 262.567 136.622 262.598 136.622C262.705 136.622 262.785 136.602 262.838 136.563C262.891 136.523 262.918 136.465 262.918 136.391C262.918 136.35 262.909 136.315 262.891 136.286C262.874 136.256 262.849 136.229 262.818 136.205C262.787 136.18 262.75 136.156 262.707 136.134C262.665 136.111 262.619 136.087 262.57 136.062C262.518 136.036 262.47 136.01 262.425 135.983C262.38 135.956 262.341 135.926 262.307 135.893C262.274 135.861 262.248 135.824 262.229 135.783C262.21 135.742 262.201 135.693 262.201 135.638C262.201 135.57 262.215 135.511 262.245 135.461C262.275 135.411 262.314 135.369 262.363 135.337C262.411 135.304 262.466 135.28 262.528 135.264C262.59 135.248 262.653 135.24 262.718 135.24C262.864 135.24 262.971 135.258 263.038 135.293V135.489C262.95 135.428 262.838 135.398 262.7 135.398C262.662 135.398 262.624 135.402 262.586 135.41C262.548 135.418 262.514 135.431 262.484 135.449C262.454 135.467 262.43 135.49 262.411 135.518C262.393 135.547 262.383 135.581 262.383 135.622C262.383 135.66 262.39 135.693 262.404 135.721C262.419 135.749 262.44 135.774 262.467 135.797C262.495 135.82 262.529 135.842 262.568 135.863C262.608 135.885 262.654 135.908 262.706 135.934C262.759 135.96 262.81 135.988 262.858 136.017C262.905 136.046 262.947 136.078 262.983 136.113C263.019 136.149 263.048 136.188 263.068 136.231C263.09 136.274 263.101 136.323 263.101 136.378C263.101 136.451 263.086 136.514 263.057 136.565C263.029 136.615 262.99 136.657 262.941 136.689C262.892 136.72 262.836 136.743 262.773 136.757C262.709 136.772 262.642 136.779 262.571 136.779C262.548 136.779 262.519 136.777 262.484 136.773C262.449 136.769 262.414 136.764 262.378 136.756C262.342 136.749 262.308 136.74 262.275 136.73C262.243 136.719 262.218 136.707 262.198 136.694ZM263.819 136.779C263.662 136.779 263.536 136.729 263.442 136.63C263.349 136.531 263.302 136.399 263.302 136.235C263.302 136.056 263.351 135.917 263.448 135.816C263.546 135.716 263.678 135.666 263.844 135.666C264.002 135.666 264.126 135.715 264.215 135.812C264.304 135.91 264.349 136.045 264.349 136.218C264.349 136.388 264.3 136.524 264.204 136.626C264.109 136.728 263.98 136.779 263.819 136.779ZM263.832 135.809C263.722 135.809 263.636 135.847 263.572 135.921C263.508 135.995 263.476 136.098 263.476 136.229C263.476 136.355 263.509 136.454 263.573 136.527C263.637 136.599 263.724 136.636 263.832 136.636C263.942 136.636 264.026 136.6 264.085 136.529C264.144 136.457 264.174 136.356 264.174 136.224C264.174 136.092 264.144 135.989 264.085 135.917C264.026 135.845 263.942 135.809 263.832 135.809ZM265.48 136.754H265.31V136.586H265.306C265.235 136.714 265.126 136.779 264.978 136.779C264.724 136.779 264.598 136.628 264.598 136.326V135.691H264.767V136.299C264.767 136.523 264.853 136.636 265.024 136.636C265.107 136.636 265.176 136.605 265.229 136.544C265.283 136.483 265.31 136.402 265.31 136.303V135.691H265.48V136.754ZM265.995 136.754H265.825V135.18H265.995V136.754ZM266.275 136.715V136.533C266.368 136.601 266.47 136.636 266.582 136.636C266.731 136.636 266.806 136.586 266.806 136.486C266.806 136.458 266.799 136.434 266.786 136.414C266.774 136.394 266.756 136.377 266.734 136.361C266.713 136.346 266.687 136.333 266.657 136.321C266.628 136.309 266.597 136.296 266.563 136.283C266.516 136.264 266.474 136.245 266.438 136.227C266.403 136.207 266.373 136.186 266.349 136.162C266.326 136.138 266.308 136.111 266.295 136.08C266.283 136.05 266.277 136.014 266.277 135.973C266.277 135.923 266.289 135.879 266.312 135.841C266.335 135.803 266.365 135.77 266.403 135.745C266.441 135.718 266.484 135.699 266.533 135.686C266.582 135.672 266.633 135.666 266.684 135.666C266.777 135.666 266.859 135.682 266.932 135.714V135.886C266.853 135.835 266.763 135.809 266.662 135.809C266.63 135.809 266.601 135.813 266.575 135.821C266.55 135.828 266.528 135.838 266.509 135.851C266.491 135.864 266.477 135.88 266.466 135.898C266.457 135.916 266.452 135.937 266.452 135.959C266.452 135.986 266.457 136.01 266.466 136.028C266.477 136.047 266.492 136.064 266.511 136.078C266.53 136.093 266.554 136.106 266.582 136.118C266.609 136.129 266.641 136.142 266.676 136.156C266.723 136.174 266.765 136.193 266.803 136.212C266.84 136.231 266.872 136.252 266.898 136.276C266.925 136.3 266.945 136.327 266.959 136.358C266.973 136.39 266.98 136.427 266.98 136.469C266.98 136.522 266.969 136.568 266.945 136.606C266.922 136.645 266.891 136.677 266.853 136.703C266.814 136.729 266.769 136.748 266.719 136.76C266.668 136.773 266.615 136.779 266.56 136.779C266.451 136.779 266.356 136.758 266.275 136.715ZM256.03 139.754H255.856V138.755C255.856 138.676 255.861 138.58 255.871 138.466H255.867C255.85 138.533 255.835 138.581 255.822 138.61L255.313 139.754H255.228L254.72 138.618C254.706 138.585 254.691 138.534 254.676 138.466H254.672C254.677 138.525 254.68 138.622 254.68 138.757V139.754H254.512V138.265H254.742L255.199 139.303C255.234 139.383 255.257 139.442 255.268 139.482H255.274C255.304 139.4 255.327 139.339 255.345 139.299L255.812 138.265H256.03V139.754ZM257.254 139.265H256.503C256.506 139.383 256.538 139.475 256.599 139.539C256.659 139.603 256.743 139.636 256.85 139.636C256.97 139.636 257.08 139.596 257.18 139.517V139.677C257.086 139.745 256.963 139.779 256.809 139.779C256.659 139.779 256.541 139.731 256.455 139.635C256.369 139.538 256.327 139.402 256.327 139.227C256.327 139.061 256.373 138.926 256.467 138.823C256.561 138.718 256.677 138.666 256.817 138.666C256.956 138.666 257.063 138.711 257.139 138.801C257.216 138.891 257.254 139.016 257.254 139.176V139.265ZM257.079 139.121C257.079 139.022 257.055 138.946 257.008 138.891C256.961 138.837 256.896 138.809 256.813 138.809C256.733 138.809 256.665 138.838 256.609 138.895C256.553 138.953 256.518 139.028 256.505 139.121H257.079ZM258.005 139.744C257.965 139.766 257.912 139.777 257.846 139.777C257.66 139.777 257.567 139.673 257.567 139.465V138.836H257.384V138.691H257.567V138.431L257.737 138.376V138.691H258.005V138.836H257.737V139.435C257.737 139.506 257.75 139.557 257.774 139.588C257.798 139.618 257.838 139.633 257.894 139.633C257.937 139.633 257.974 139.622 258.005 139.598V139.744ZM258.994 139.754H258.823V139.588H258.819C258.745 139.715 258.636 139.779 258.492 139.779C258.386 139.779 258.303 139.751 258.243 139.695C258.183 139.639 258.154 139.564 258.154 139.472C258.154 139.273 258.271 139.157 258.505 139.125L258.823 139.08C258.823 138.899 258.75 138.809 258.604 138.809C258.476 138.809 258.361 138.853 258.258 138.94V138.766C258.362 138.699 258.482 138.666 258.619 138.666C258.869 138.666 258.994 138.798 258.994 139.062V139.754ZM258.823 139.216L258.567 139.251C258.488 139.263 258.429 139.282 258.388 139.311C258.348 139.338 258.328 139.388 258.328 139.459C258.328 139.511 258.346 139.554 258.383 139.587C258.421 139.619 258.47 139.636 258.532 139.636C258.616 139.636 258.686 139.606 258.74 139.547C258.796 139.488 258.823 139.413 258.823 139.322V139.216ZM259.485 139.754H259.314V138.18H259.485V139.754ZM261.549 139.652C261.399 139.737 261.233 139.779 261.05 139.779C260.838 139.779 260.666 139.71 260.534 139.573C260.403 139.436 260.338 139.255 260.338 139.029C260.338 138.799 260.411 138.61 260.556 138.462C260.702 138.314 260.887 138.24 261.11 138.24C261.272 138.24 261.408 138.267 261.518 138.319V138.512C261.398 138.436 261.255 138.398 261.091 138.398C260.924 138.398 260.787 138.455 260.681 138.57C260.574 138.685 260.521 138.834 260.521 139.017C260.521 139.205 260.57 139.353 260.669 139.461C260.768 139.568 260.902 139.622 261.072 139.622C261.188 139.622 261.289 139.599 261.374 139.552V139.135H261.048V138.977H261.549V139.652ZM262.727 139.265H261.976C261.979 139.383 262.011 139.475 262.072 139.539C262.133 139.603 262.216 139.636 262.323 139.636C262.443 139.636 262.553 139.596 262.653 139.517V139.677C262.56 139.745 262.436 139.779 262.283 139.779C262.132 139.779 262.014 139.731 261.929 139.635C261.843 139.538 261.8 139.402 261.8 139.227C261.8 139.061 261.847 138.926 261.94 138.823C262.034 138.718 262.151 138.666 262.29 138.666C262.429 138.666 262.537 138.711 262.613 138.801C262.689 138.891 262.727 139.016 262.727 139.176V139.265ZM262.553 139.121C262.552 139.022 262.528 138.946 262.481 138.891C262.434 138.837 262.37 138.809 262.287 138.809C262.206 138.809 262.138 138.838 262.082 138.895C262.026 138.953 261.992 139.028 261.978 139.121H262.553ZM263.746 139.754H263.576V139.588H263.572C263.498 139.715 263.389 139.779 263.245 139.779C263.139 139.779 263.056 139.751 262.996 139.695C262.936 139.639 262.907 139.564 262.907 139.472C262.907 139.273 263.023 139.157 263.257 139.125L263.576 139.08C263.576 138.899 263.503 138.809 263.357 138.809C263.229 138.809 263.113 138.853 263.01 138.94V138.766C263.115 138.699 263.235 138.666 263.372 138.666C263.621 138.666 263.746 138.798 263.746 139.062V139.754ZM263.576 139.216L263.32 139.251C263.241 139.263 263.181 139.282 263.141 139.311C263.101 139.338 263.081 139.388 263.081 139.459C263.081 139.511 263.099 139.554 263.136 139.587C263.173 139.619 263.223 139.636 263.284 139.636C263.369 139.636 263.438 139.606 263.493 139.547C263.548 139.488 263.576 139.413 263.576 139.322V139.216ZM264.622 138.863C264.592 138.84 264.549 138.829 264.493 138.829C264.42 138.829 264.359 138.863 264.31 138.932C264.262 139 264.237 139.094 264.237 139.212V139.754H264.067V138.691H264.237V138.91H264.242C264.266 138.835 264.303 138.777 264.353 138.735C264.403 138.693 264.458 138.672 264.52 138.672C264.564 138.672 264.598 138.677 264.622 138.687V138.863ZM265.343 139.694V139.488C265.367 139.509 265.395 139.528 265.427 139.544C265.46 139.561 265.495 139.575 265.531 139.587C265.568 139.598 265.604 139.606 265.641 139.613C265.678 139.619 265.712 139.622 265.743 139.622C265.85 139.622 265.93 139.602 265.983 139.563C266.036 139.523 266.063 139.465 266.063 139.391C266.063 139.35 266.054 139.315 266.036 139.286C266.018 139.256 265.994 139.229 265.963 139.205C265.932 139.18 265.895 139.156 265.852 139.134C265.81 139.111 265.764 139.087 265.715 139.062C265.663 139.036 265.614 139.01 265.569 138.983C265.524 138.956 265.485 138.926 265.452 138.893C265.419 138.861 265.393 138.824 265.373 138.783C265.355 138.742 265.345 138.693 265.345 138.638C265.345 138.57 265.36 138.511 265.39 138.461C265.42 138.411 265.459 138.369 265.507 138.337C265.556 138.304 265.611 138.28 265.672 138.264C265.735 138.248 265.798 138.24 265.862 138.24C266.009 138.24 266.116 138.258 266.183 138.293V138.489C266.095 138.428 265.982 138.398 265.845 138.398C265.807 138.398 265.768 138.402 265.73 138.41C265.692 138.418 265.658 138.431 265.629 138.449C265.599 138.467 265.575 138.49 265.556 138.518C265.537 138.547 265.528 138.581 265.528 138.622C265.528 138.66 265.535 138.693 265.549 138.721C265.563 138.749 265.584 138.774 265.612 138.797C265.64 138.82 265.673 138.842 265.713 138.863C265.753 138.885 265.799 138.908 265.851 138.934C265.904 138.96 265.955 138.988 266.002 139.017C266.05 139.046 266.092 139.078 266.128 139.113C266.164 139.149 266.192 139.188 266.213 139.231C266.235 139.274 266.245 139.323 266.245 139.378C266.245 139.451 266.231 139.514 266.202 139.565C266.173 139.615 266.135 139.657 266.085 139.689C266.037 139.72 265.981 139.743 265.917 139.757C265.854 139.772 265.786 139.779 265.716 139.779C265.692 139.779 265.663 139.777 265.629 139.773C265.594 139.769 265.559 139.764 265.523 139.756C265.487 139.749 265.452 139.74 265.42 139.73C265.388 139.719 265.363 139.707 265.343 139.694ZM266.964 139.779C266.807 139.779 266.681 139.729 266.587 139.63C266.493 139.531 266.447 139.399 266.447 139.235C266.447 139.056 266.496 138.917 266.593 138.816C266.691 138.716 266.823 138.666 266.989 138.666C267.147 138.666 267.271 138.715 267.359 138.812C267.449 138.91 267.493 139.045 267.493 139.218C267.493 139.388 267.445 139.524 267.349 139.626C267.253 139.728 267.125 139.779 266.964 139.779ZM266.976 138.809C266.867 138.809 266.78 138.847 266.717 138.921C266.653 138.995 266.621 139.098 266.621 139.229C266.621 139.355 266.653 139.454 266.718 139.527C266.782 139.599 266.868 139.636 266.976 139.636C267.086 139.636 267.171 139.6 267.23 139.529C267.289 139.457 267.319 139.356 267.319 139.224C267.319 139.092 267.289 138.989 267.23 138.917C267.171 138.845 267.086 138.809 266.976 138.809ZM267.935 139.754H267.765V138.18H267.935V139.754ZM268.367 138.421C268.337 138.421 268.311 138.41 268.289 138.39C268.268 138.369 268.257 138.343 268.257 138.311C268.257 138.279 268.268 138.253 268.289 138.232C268.311 138.21 268.337 138.2 268.367 138.2C268.399 138.2 268.425 138.21 268.446 138.232C268.468 138.253 268.479 138.279 268.479 138.311C268.479 138.341 268.468 138.367 268.446 138.389C268.425 138.41 268.399 138.421 268.367 138.421ZM268.45 139.754H268.28V138.691H268.45V139.754ZM269.702 139.754H269.532V139.573H269.528C269.449 139.71 269.327 139.779 269.163 139.779C269.029 139.779 268.922 139.731 268.842 139.637C268.762 139.541 268.722 139.411 268.722 139.247C268.722 139.071 268.767 138.931 268.855 138.825C268.944 138.719 269.062 138.666 269.209 138.666C269.355 138.666 269.462 138.723 269.528 138.838H269.532V138.18H269.702V139.754ZM269.532 139.273V139.116C269.532 139.031 269.504 138.958 269.447 138.898C269.39 138.839 269.318 138.809 269.231 138.809C269.127 138.809 269.046 138.847 268.986 138.923C268.927 138.999 268.897 139.105 268.897 139.239C268.897 139.361 268.925 139.458 268.982 139.53C269.039 139.6 269.116 139.636 269.212 139.636C269.307 139.636 269.384 139.601 269.443 139.533C269.502 139.464 269.532 139.378 269.532 139.273Z" fill="black"/>
<g clip-path="url(#clip0_831_44)" filter="url(#filter1_d_831_44)">
<path d="M1 16.7266H197.74V213.93H1V16.7266Z" fill="url(#paint5_linear_831_44)"/>
<path fill-rule="evenodd" clip-rule="evenodd" d="M67 82C49.2813 82.2679 35 96.7509 35 114.578C35 132.572 49.5507 147.159 67.5 147.159C85.3099 147.159 99.7739 132.798 99.9974 114.996H67V82Z" fill="#00FF19"/>
<path d="M149.698 120.909H162.001V133.211H149.698V120.909Z" fill="#00FF19"/>
<path d="M149.698 108.606V96.3028V84H100.486V145.514H149.698V133.211V120.909V108.606Z" fill="#00FF19"/>
<path d="M149.698 108.606H162.001V96.3028L149.698 96.3028V108.606Z" fill="#00FF19"/>
</g>
<defs>
<filter id="filter0_d_831_44" x="0.33757" y="0" width="188.958" height="215.29" filterUnits="userSpaceOnUse" color-interpolation-filters="sRGB">
<feFlood flood-opacity="0" result="BackgroundImageFix"/>
<feColorMatrix in="SourceAlpha" type="matrix" values="0 0 0 0 0 0 0 0 0 0 0 0 0 0 0 0 0 0 127 0" result="hardAlpha"/>
<feOffset dy="0.66243"/>
<feGaussianBlur stdDeviation="0.331215"/>
<feComposite in2="hardAlpha" operator="out"/>
<feColorMatrix type="matrix" values="0 0 0 0 0 0 0 0 0 0 0 0 0 0 0 0 0 0 0.25 0"/>
<feBlend mode="normal" in2="BackgroundImageFix" result="effect1_dropShadow_831_44"/>
<feBlend mode="normal" in="SourceGraphic" in2="effect1_dropShadow_831_44" result="shape"/>
</filter>
<filter id="filter1_d_831_44" x="0.33757" y="16.7266" width="198.065" height="198.528" filterUnits="userSpaceOnUse" color-interpolation-filters="sRGB">
<feFlood flood-opacity="0" result="BackgroundImageFix"/>
<feColorMatrix in="SourceAlpha" type="matrix" values="0 0 0 0 0 0 0 0 0 0 0 0 0 0 0 0 0 0 127 0" result="hardAlpha"/>
<feOffset dy="0.66243"/>
<feGaussianBlur stdDeviation="0.331215"/>
<feComposite in2="hardAlpha" operator="out"/>
<feColorMatrix type="matrix" values="0 0 0 0 0 0 0 0 0 0 0 0 0 0 0 0 0 0 0.25 0"/>
<feBlend mode="normal" in2="BackgroundImageFix" result="effect1_dropShadow_831_44"/>
<feBlend mode="normal" in="SourceGraphic" in2="effect1_dropShadow_831_44" result="shape"/>
</filter>
<linearGradient id="paint0_linear_831_44" x1="1" y1="110.12" x2="503.956" y2="114.85" gradientUnits="userSpaceOnUse">
<stop/>
<stop offset="1" stop-color="#D9D9D9"/>
</linearGradient>
<linearGradient id="paint1_linear_831_44" x1="171.015" y1="120.82" x2="485.493" y2="162.878" gradientUnits="userSpaceOnUse">
<stop offset="0.278493"/>
<stop offset="1" stop-color="white"/>
</linearGradient>
<linearGradient id="paint2_linear_831_44" x1="262.376" y1="23.6797" x2="262.376" y2="206.931" gradientUnits="userSpaceOnUse">
<stop/>
<stop offset="1" stop-color="white"/>
</linearGradient>
<linearGradient id="paint3_linear_831_44" x1="262.375" y1="85.5938" x2="262.375" y2="145.015" gradientUnits="userSpaceOnUse">
<stop/>
<stop offset="1" stop-color="white"/>
</linearGradient>
<linearGradient id="paint4_linear_831_44" x1="262.271" y1="112.812" x2="262.271" y2="118.007" gradientUnits="userSpaceOnUse">
<stop/>
<stop offset="1" stop-color="white"/>
</linearGradient>
<linearGradient id="paint5_linear_831_44" x1="1" y1="110.103" x2="528.363" y2="115.304" gradientUnits="userSpaceOnUse">
<stop stop-color="#515151"/>
<stop offset="0.206219"/>
<stop offset="0.426228" stop-color="#515151"/>
</linearGradient>
<clipPath id="clip0_831_44">
<rect width="196.74" height="197.204" fill="white" transform="translate(1 16.7266)"/>
</clipPath>
</defs>
</svg>
